<?xml version="1.0" standalone="no"?>
<!DOCTYPE svg PUBLIC "-//W3C//DTD SVG 20010904//EN"
 "http://www.w3.org/TR/2001/REC-SVG-20010904/DTD/svg10.dtd">
<svg version="1.0" xmlns="http://www.w3.org/2000/svg"
 width="256.000000pt" height="256.000000pt" viewBox="0 0 256.000000 256.000000"
 preserveAspectRatio="xMidYMid meet">

<g transform="translate(0.000000,256.000000) scale(0.100000,-0.100000)"
fill="#000000" stroke="none">
<path d="M1195 2549 c-193 -29 -373 -202 -414 -397 -6 -29 -11 -98 -11 -152
l0 -100 -180 0 c-167 0 -181 -1 -200 -20 -20 -20 -20 -29 -18 -843 l3 -822 31
-55 c36 -64 107 -122 173 -142 67 -19 1335 -19 1402 0 66 20 137 78 173 142
l31 55 3 822 c2 814 2 823 -18 843 -19 19 -33 20 -200 20 l-180 0 0 103 c0
172 -40 284 -141 392 -116 123 -283 180 -454 154z m237 -182 c75 -37 135 -98
171 -176 28 -59 30 -73 31 -175 l1 -111 -355 0 -355 0 1 111 c1 102 3 116 31
175 44 92 108 153 200 190 74 29 200 23 275 -14z m-662 -692 c0 -67 3 -79 25
-100 30 -31 71 -32 102 -3 20 19 23 31 23 100 l0 78 360 0 360 0 0 -77 c0 -65
3 -80 22 -100 29 -31 72 -30 103 2 22 21 25 33 25 100 l0 75 125 0 125 0 0
-738 c0 -698 -1 -739 -19 -772 -10 -19 -33 -45 -51 -57 l-33 -23 -657 0 -657
0 -34 23 c-72 48 -69 7 -69 830 l0 737 125 0 125 0 0 -75z"/>
<path d="M1180 1554 c-189 -37 -359 -162 -440 -326 -119 -242 -75 -513 115
-704 115 -115 258 -174 425 -174 233 0 437 126 539 331 168 338 7 722 -356
850 -57 20 -226 34 -283 23z m191 -158 c418 -89 491 -653 110 -845 -299 -151
-651 68 -651 405 0 211 147 394 353 439 81 17 108 18 188 1z"/>
<path d="M1254 1270 c-43 -17 -54 -48 -54 -147 l0 -93 -94 0 c-79 0 -97 -3
-120 -21 -33 -26 -36 -79 -6 -109 17 -17 33 -20 120 -20 l100 0 0 -90 c0 -49
5 -100 11 -114 26 -55 112 -55 138 0 6 14 11 65 11 114 l0 90 100 0 c89 0 101
2 120 22 29 32 27 81 -6 107 -23 18 -41 21 -119 21 l-93 0 -4 100 c-2 84 -6
103 -23 119 -26 24 -54 32 -81 21z"/>
</g>
</svg>
