<?xml version="1.0" standalone="no"?>
<!DOCTYPE svg PUBLIC "-//W3C//DTD SVG 20010904//EN"
 "http://www.w3.org/TR/2001/REC-SVG-20010904/DTD/svg10.dtd">
<svg version="1.0" xmlns="http://www.w3.org/2000/svg"
 width="240.000000pt" height="240.000000pt" viewBox="0 0 240.000000 240.000000"
 preserveAspectRatio="xMidYMid meet">

<g transform="translate(0.000000,240.000000) scale(0.100000,-0.100000)"
fill="#000000" stroke="none">
<path d="M1020 2345 c-627 -99 -1060 -689 -966 -1315 97 -639 686 -1072 1329
-975 374 56 707 307 870 655 175 375 132 822 -114 1170 -245 346 -691 532
-1119 465z m-454 -563 c6 -4 26 -53 45 -109 l33 -103 580 -2 c539 -3 580 -4
590 -21 9 -13 -5 -65 -69 -255 l-80 -237 -424 -3 c-331 -2 -422 -5 -418 -15 2
-6 13 -38 23 -69 l18 -58 370 0 c353 0 373 -1 404 -20 52 -32 74 -76 69 -139
-3 -48 -8 -58 -45 -93 -26 -24 -52 -38 -69 -39 -116 -5 -179 54 -172 159 l4
52 -228 0 c-155 0 -226 -3 -222 -10 12 -20 7 -98 -9 -128 -22 -43 -79 -75
-132 -74 -143 2 -197 175 -83 265 l31 24 -133 402 -134 401 -72 0 c-70 0 -73
1 -79 27 -11 40 16 53 110 53 45 0 86 -4 92 -8z"/>
<path d="M694 1423 l23 -68 126 -3 c70 -1 127 1 127 4 0 4 -5 36 -11 71 l-11
63 -138 0 -139 0 23 -67z"/>
<path d="M1030 1483 c0 -3 5 -35 11 -70 l11 -63 148 0 147 0 12 57 c6 31 11
62 11 70 0 10 -35 13 -170 13 -93 0 -170 -3 -170 -7z"/>
<path d="M1441 1427 c-6 -35 -11 -67 -11 -71 0 -3 57 -5 127 -4 l126 3 23 68
23 67 -139 0 -138 0 -11 -63z"/>
<path d="M750 1262 c0 -4 9 -36 21 -70 l21 -62 110 0 c88 0 109 3 105 13 -3 8
-8 39 -12 70 l-7 57 -119 0 c-66 0 -119 -4 -119 -8z"/>
<path d="M1075 1213 c11 -87 4 -83 125 -83 121 0 114 -4 125 83 l7 57 -132 0
-132 0 7 -57z"/>
<path d="M1405 1213 c-4 -31 -9 -62 -12 -70 -4 -10 17 -13 105 -13 l110 0 21
62 c12 34 21 66 21 70 0 4 -53 8 -119 8 l-119 0 -7 -57z"/>
<path d="M787 812 c-27 -29 -22 -77 10 -102 64 -50 143 29 93 93 -26 33 -78
37 -103 9z"/>
<path d="M1518 813 c-25 -29 -29 -53 -13 -82 19 -38 60 -48 94 -23 32 24 40
76 15 103 -22 24 -76 25 -96 2z"/>
</g>
</svg>
