<svg id="svg" version="1.1" xmlns="http://www.w3.org/2000/svg" xmlns:xlink="http://www.w3.org/1999/xlink" width="400" height="400" viewBox="0, 0, 400,400"><g id="svgg"><path id="path0" d="M103.159 118.108 C 99.483 120.564,99.627 125.822,103.432 128.056 C 104.462 128.660,106.023 128.745,116.606 128.771 C 131.290 128.807,133.689 129.414,136.386 133.777 C 137.583 135.714,137.883 136.713,139.218 143.200 C 139.467 144.410,139.843 146.210,140.054 147.200 C 140.726 150.358,141.227 152.960,141.441 154.400 C 141.556 155.170,141.807 156.160,142.000 156.600 C 142.193 157.040,142.442 158.030,142.553 158.800 C 142.664 159.570,142.954 161.100,143.196 162.200 C 143.438 163.300,143.800 165.010,144.000 166.000 C 144.200 166.990,144.544 168.610,144.764 169.600 C 144.985 170.590,145.369 172.390,145.618 173.600 C 146.180 176.334,146.686 178.693,147.183 180.900 C 147.393 181.835,147.743 183.500,147.960 184.600 C 148.177 185.700,149.097 190.110,150.005 194.400 C 150.912 198.690,151.892 203.370,152.182 204.800 C 154.135 214.416,154.183 214.650,154.804 217.400 C 155.003 218.280,155.369 219.990,155.618 221.200 C 155.867 222.410,156.247 224.210,156.463 225.200 C 156.679 226.190,156.888 227.540,156.928 228.200 L 157.000 229.400 152.581 229.657 C 130.205 230.957,126.556 260.097,148.052 265.819 C 152.056 266.884,277.522 266.660,279.632 265.584 C 283.594 263.562,283.958 258.136,280.306 255.532 L 279.000 254.600 214.200 254.391 C 178.560 254.276,149.361 254.141,149.314 254.091 C 149.267 254.041,148.594 253.444,147.819 252.763 C 144.348 249.715,145.089 244.421,149.320 242.045 L 150.824 241.200 215.023 241.200 L 279.221 241.200 280.921 239.500 C 282.322 238.099,282.704 237.377,283.091 235.400 C 283.349 234.080,284.115 230.390,284.793 227.200 C 285.471 224.010,286.197 220.590,286.405 219.600 C 286.614 218.610,287.058 216.540,287.392 215.000 C 288.062 211.916,288.162 210.734,287.694 211.449 C 286.736 212.913,276.771 218.502,271.800 220.365 C 270.480 220.859,269.087 221.430,268.705 221.632 C 268.323 221.834,267.659 222.000,267.229 222.000 C 266.799 222.000,266.348 222.160,266.227 222.356 C 266.106 222.551,265.421 222.812,264.704 222.934 C 263.987 223.056,262.500 223.354,261.400 223.596 C 256.104 224.761,253.634 224.981,245.800 224.981 C 237.151 224.981,232.881 224.493,227.200 222.857 C 226.430 222.635,225.350 222.337,224.800 222.194 C 224.250 222.050,223.440 221.786,223.000 221.606 C 222.560 221.425,221.120 220.870,219.800 220.372 C 209.065 216.317,195.475 206.231,190.059 198.297 C 189.722 197.804,189.328 197.310,189.183 197.200 C 187.613 196.008,181.537 185.188,179.636 180.200 C 179.134 178.880,178.584 177.440,178.416 177.000 C 177.691 175.100,177.200 173.283,177.200 172.495 C 177.200 172.029,177.039 171.548,176.842 171.426 C 176.645 171.305,176.381 170.529,176.254 169.703 C 176.127 168.876,175.823 167.030,175.579 165.600 C 175.334 164.170,175.046 160.165,174.939 156.700 L 174.745 150.400 164.072 150.394 C 152.422 150.387,152.623 150.421,152.225 148.400 C 149.322 133.644,148.057 129.272,146.113 127.271 C 145.831 126.981,145.600 126.621,145.600 126.471 C 145.600 124.413,137.921 119.259,132.966 117.991 C 127.928 116.703,105.129 116.792,103.159 118.108 M184.600 275.702 C 179.657 277.420,177.267 279.860,175.661 284.828 C 172.204 295.529,186.990 304.081,195.710 296.425 C 204.710 288.523,195.758 271.825,184.600 275.702 M251.400 275.697 C 247.550 277.017,243.200 280.603,243.200 282.457 C 243.200 282.840,243.020 283.264,242.800 283.400 C 241.940 283.932,242.328 291.050,243.313 292.803 C 249.349 303.550,264.942 300.661,266.308 288.543 C 267.173 280.867,258.390 273.299,251.400 275.697 " stroke="none" fill="#fcd404" fill-rule="evenodd"></path><path id="path1" d="M240.400 100.652 C 236.532 101.206,233.491 101.770,231.600 102.283 C 230.390 102.611,228.992 102.973,228.494 103.088 C 227.996 103.202,227.490 103.454,227.370 103.648 C 227.251 103.841,226.848 104.005,226.476 104.010 C 226.104 104.016,224.450 104.703,222.800 105.537 C 204.716 114.677,194.073 130.166,192.379 149.808 C 188.796 191.366,232.473 220.976,269.800 202.294 C 278.471 197.955,288.264 189.056,291.675 182.420 C 291.963 181.859,292.293 181.310,292.409 181.200 C 292.922 180.713,296.016 173.974,296.726 171.800 C 300.691 159.652,300.659 148.236,296.625 136.200 C 295.840 133.858,292.745 127.461,292.304 127.267 C 292.137 127.193,292.000 126.958,292.000 126.745 C 292.000 125.130,284.010 115.760,279.549 112.143 C 269.155 103.715,252.713 98.889,240.400 100.652 M110.924 116.699 C 114.183 116.767,119.403 116.766,122.524 116.699 C 125.646 116.631,122.980 116.576,116.600 116.577 C 110.220 116.577,107.666 116.632,110.924 116.699 M143.400 123.600 C 144.706 124.920,145.865 126.000,145.975 126.000 C 146.085 126.000,145.106 124.920,143.800 123.600 C 142.494 122.280,141.335 121.200,141.225 121.200 C 141.115 121.200,142.094 122.280,143.400 123.600 M250.226 126.100 C 253.939 128.619,254.377 129.935,254.390 138.620 C 254.402 146.125,253.875 145.598,261.380 145.610 C 271.583 145.626,275.200 147.830,275.200 154.033 C 275.200 160.602,271.742 162.800,261.404 162.800 L 254.400 162.800 254.398 169.500 C 254.394 180.073,252.272 183.563,245.826 183.591 C 239.447 183.620,237.200 179.937,237.200 169.454 L 237.200 162.800 230.196 162.800 C 223.900 162.800,223.009 162.714,221.393 161.955 C 215.314 159.097,214.681 151.182,220.215 147.207 L 222.174 145.800 229.687 145.657 L 237.200 145.514 237.200 138.903 C 237.200 134.983,237.392 131.652,237.672 130.718 C 239.224 125.539,245.821 123.112,250.226 126.100 M126.505 129.487 C 127.114 129.579,128.014 129.577,128.505 129.482 C 128.997 129.387,128.500 129.311,127.400 129.314 C 126.300 129.317,125.897 129.395,126.505 129.487 M150.856 140.400 C 150.856 140.730,151.011 141.360,151.200 141.800 C 151.417 142.304,151.544 142.378,151.544 142.000 C 151.544 141.670,151.389 141.040,151.200 140.600 C 150.983 140.096,150.856 140.022,150.856 140.400 M174.937 155.000 C 174.939 156.760,175.009 157.430,175.093 156.489 C 175.178 155.549,175.177 154.109,175.091 153.289 C 175.005 152.470,174.936 153.240,174.937 155.000 M146.006 178.633 C 146.009 179.055,146.195 179.670,146.418 180.000 C 146.715 180.438,146.752 180.276,146.556 179.400 C 146.227 177.929,145.998 177.610,146.006 178.633 M146.856 182.400 C 146.856 182.730,147.011 183.360,147.200 183.800 C 147.417 184.304,147.544 184.378,147.544 184.000 C 147.544 183.670,147.389 183.040,147.200 182.600 C 146.983 182.096,146.856 182.022,146.856 182.400 M148.456 190.000 C 148.456 190.330,148.611 190.960,148.800 191.400 C 149.017 191.904,149.144 191.978,149.144 191.600 C 149.144 191.270,148.989 190.640,148.800 190.200 C 148.583 189.696,148.456 189.622,148.456 190.000 M150.056 197.600 C 150.056 197.930,150.211 198.560,150.400 199.000 C 150.617 199.504,150.744 199.578,150.744 199.200 C 150.744 198.870,150.589 198.240,150.400 197.800 C 150.183 197.296,150.056 197.222,150.056 197.600 M195.600 204.200 C 196.346 204.970,197.047 205.600,197.157 205.600 C 197.267 205.600,196.746 204.970,196.000 204.200 C 195.254 203.430,194.553 202.800,194.443 202.800 C 194.333 202.800,194.854 203.430,195.600 204.200 M155.668 224.000 C 155.688 225.039,156.318 226.746,156.332 225.800 C 156.338 225.360,156.189 224.640,156.000 224.200 C 155.789 223.710,155.661 223.632,155.668 224.000 M255.700 224.276 C 256.085 224.376,256.715 224.376,257.100 224.276 C 257.485 224.175,257.170 224.093,256.400 224.093 C 255.630 224.093,255.315 224.175,255.700 224.276 M244.100 225.094 C 245.145 225.176,246.855 225.176,247.900 225.094 C 248.945 225.012,248.090 224.944,246.000 224.944 C 243.910 224.944,243.055 225.012,244.100 225.094 M152.291 229.089 C 153.001 229.177,154.261 229.179,155.091 229.092 C 155.921 229.005,155.340 228.933,153.800 228.931 C 152.260 228.929,151.581 229.000,152.291 229.089 M283.829 233.029 C 283.681 233.615,283.638 234.172,283.732 234.266 C 283.827 234.360,284.024 233.958,284.171 233.371 C 284.319 232.785,284.362 232.228,284.268 232.134 C 284.173 232.040,283.976 232.442,283.829 233.029 M138.800 234.600 C 137.828 235.590,137.123 236.400,137.233 236.400 C 137.343 236.400,138.228 235.590,139.200 234.600 C 140.172 233.610,140.877 232.800,140.767 232.800 C 140.657 232.800,139.772 233.610,138.800 234.600 M148.294 242.851 C 147.685 243.304,146.998 244.064,146.767 244.538 C 146.371 245.349,146.390 245.346,147.086 244.485 C 147.493 243.982,148.360 243.218,149.013 242.788 C 149.666 242.357,150.020 242.010,149.800 242.015 C 149.580 242.021,148.902 242.397,148.294 242.851 M133.324 247.800 C 133.326 249.120,133.401 249.612,133.490 248.893 C 133.579 248.174,133.577 247.094,133.486 246.493 C 133.395 245.892,133.322 246.480,133.324 247.800 M283.293 260.400 C 283.293 261.170,283.375 261.485,283.476 261.100 C 283.576 260.715,283.576 260.085,283.476 259.700 C 283.375 259.315,283.293 259.630,283.293 260.400 M137.600 260.125 C 137.600 260.194,138.185 260.779,138.900 261.425 L 140.200 262.600 139.025 261.300 C 137.930 260.088,137.600 259.816,137.600 260.125 M281.599 264.500 C 281.010 265.304,280.913 265.584,281.345 265.233 C 282.001 264.700,282.993 263.200,282.689 263.200 C 282.613 263.200,282.122 263.785,281.599 264.500 M181.700 266.700 C 199.465 266.758,228.535 266.758,246.300 266.700 C 264.065 266.642,249.530 266.595,214.000 266.595 C 178.470 266.595,163.935 266.642,181.700 266.700 M186.307 275.090 C 187.026 275.179,188.106 275.177,188.707 275.086 C 189.308 274.995,188.720 274.922,187.400 274.924 C 186.080 274.926,185.588 275.001,186.307 275.090 M253.107 275.090 C 253.826 275.179,254.906 275.177,255.507 275.086 C 256.108 274.995,255.520 274.922,254.200 274.924 C 252.880 274.926,252.388 275.001,253.107 275.090 M196.382 279.000 C 197.347 280.100,198.220 281.090,198.322 281.200 C 198.425 281.310,198.319 281.040,198.087 280.600 C 197.855 280.160,196.982 279.170,196.147 278.400 C 194.703 277.069,194.715 277.099,196.382 279.000 M245.178 278.700 L 243.800 280.200 245.300 278.822 C 246.696 277.538,246.984 277.200,246.678 277.200 C 246.612 277.200,245.937 277.875,245.178 278.700 M174.924 287.400 C 174.926 288.720,175.001 289.212,175.090 288.493 C 175.179 287.774,175.177 286.694,175.086 286.093 C 174.995 285.492,174.922 286.080,174.924 287.400 M266.520 287.600 C 266.520 288.810,266.595 289.305,266.687 288.700 C 266.778 288.095,266.778 287.105,266.687 286.500 C 266.595 285.895,266.520 286.390,266.520 287.600 M262.800 296.200 C 261.828 297.190,261.123 298.000,261.233 298.000 C 261.343 298.000,262.228 297.190,263.200 296.200 C 264.172 295.210,264.877 294.400,264.767 294.400 C 264.657 294.400,263.772 295.210,262.800 296.200 M178.400 296.200 C 179.146 296.970,179.847 297.600,179.957 297.600 C 180.067 297.600,179.546 296.970,178.800 296.200 C 178.054 295.430,177.353 294.800,177.243 294.800 C 177.133 294.800,177.654 295.430,178.400 296.200 " stroke="none" fill="#fce474" fill-rule="evenodd"></path><path id="path2" d="M61.500 0.292 C 60.235 0.373,59.200 0.611,59.200 0.820 C 59.200 1.029,58.495 1.200,57.633 1.200 C 56.772 1.200,56.007 1.372,55.933 1.582 C 55.860 1.793,55.137 2.009,54.326 2.063 C 53.515 2.116,52.941 2.304,53.049 2.480 C 53.158 2.656,52.596 2.800,51.800 2.800 C 50.937 2.800,50.453 2.961,50.600 3.200 C 50.747 3.438,50.271 3.600,49.424 3.600 C 48.641 3.600,47.999 3.735,47.997 3.900 C 47.993 4.239,46.074 5.200,45.400 5.200 C 44.726 5.200,42.807 6.161,42.803 6.500 C 42.801 6.665,42.440 6.800,42.000 6.800 C 41.560 6.800,41.200 6.980,41.200 7.200 C 41.200 7.420,40.829 7.600,40.376 7.600 C 39.923 7.600,39.664 7.780,39.800 8.000 C 39.940 8.226,39.609 8.400,39.039 8.400 C 38.485 8.400,37.678 8.779,37.246 9.243 C 36.814 9.706,36.267 9.965,36.031 9.819 C 35.794 9.673,35.600 9.713,35.600 9.909 C 35.600 10.105,35.105 10.520,34.500 10.832 C 33.895 11.145,33.160 11.627,32.868 11.904 C 32.575 12.181,32.205 12.326,32.045 12.228 C 31.885 12.129,31.427 12.484,31.027 13.016 C 30.627 13.549,30.176 13.909,30.025 13.815 C 29.874 13.722,29.238 14.085,28.613 14.623 C 27.987 15.160,27.639 15.601,27.838 15.601 C 28.037 15.602,27.651 15.938,26.981 16.347 C 25.271 17.389,16.519 26.196,16.203 27.191 C 16.060 27.642,15.820 27.938,15.671 27.848 C 15.522 27.758,15.168 27.935,14.884 28.242 C 14.601 28.549,14.511 28.805,14.684 28.812 C 14.858 28.819,14.685 29.008,14.300 29.232 C 13.915 29.456,13.600 29.901,13.600 30.220 C 13.600 30.539,13.420 30.800,13.200 30.800 C 12.980 30.800,12.800 31.081,12.800 31.424 C 12.800 31.793,12.612 31.931,12.338 31.762 C 12.073 31.598,11.984 31.651,12.130 31.886 C 12.269 32.111,11.937 32.814,11.392 33.448 C 10.847 34.082,10.401 34.825,10.400 35.100 C 10.400 35.375,10.209 35.600,9.976 35.600 C 9.743 35.600,9.673 35.794,9.819 36.031 C 9.965 36.267,9.706 36.814,9.243 37.246 C 8.779 37.678,8.400 38.384,8.400 38.816 C 8.400 39.247,8.220 39.600,8.000 39.600 C 7.780 39.600,7.600 39.960,7.600 40.400 C 7.600 40.840,7.420 41.200,7.200 41.200 C 6.980 41.200,6.800 41.434,6.800 41.720 C 6.800 42.456,5.859 44.393,5.500 44.397 C 5.335 44.399,5.200 44.850,5.200 45.400 C 5.200 45.950,5.020 46.400,4.800 46.400 C 4.580 46.400,4.400 46.760,4.400 47.200 C 4.400 47.640,4.220 48.000,4.000 48.000 C 3.780 48.000,3.600 48.641,3.600 49.424 C 3.600 50.271,3.438 50.747,3.200 50.600 C 2.961 50.453,2.800 50.937,2.800 51.800 C 2.800 52.596,2.656 53.158,2.480 53.049 C 2.304 52.941,2.116 53.515,2.063 54.326 C 2.009 55.137,1.793 55.860,1.582 55.933 C 1.372 56.007,1.200 56.757,1.200 57.600 C 1.200 58.471,0.984 59.205,0.700 59.300 C -0.036 59.545,-0.036 340.455,0.700 340.700 C 0.984 340.795,1.200 341.529,1.200 342.400 C 1.200 343.243,1.372 343.993,1.582 344.067 C 1.793 344.140,2.010 344.875,2.064 345.700 C 2.119 346.525,2.307 347.200,2.482 347.200 C 2.657 347.200,2.800 347.740,2.800 348.400 C 2.800 349.060,2.980 349.600,3.200 349.600 C 3.420 349.600,3.600 350.140,3.600 350.800 C 3.600 351.460,3.780 352.000,4.000 352.000 C 4.220 352.000,4.400 352.360,4.400 352.800 C 4.400 353.240,4.580 353.600,4.800 353.600 C 5.020 353.600,5.200 353.872,5.200 354.205 C 5.200 354.538,5.368 355.123,5.574 355.505 C 5.779 355.887,6.183 356.785,6.471 357.500 C 6.760 358.215,7.131 358.800,7.298 358.800 C 7.464 358.800,7.600 359.160,7.600 359.600 C 7.600 360.040,7.780 360.400,8.000 360.400 C 8.220 360.400,8.400 360.664,8.400 360.986 C 8.400 361.745,9.664 364.400,10.026 364.400 C 10.178 364.400,10.527 364.940,10.800 365.600 C 11.073 366.260,11.455 366.800,11.649 366.800 C 11.842 366.800,12.000 367.120,12.000 367.512 C 12.000 367.903,12.360 368.483,12.800 368.800 C 13.240 369.117,13.600 369.578,13.600 369.823 C 13.600 370.069,14.320 371.027,15.200 371.952 C 16.080 372.877,16.800 373.794,16.800 373.990 C 16.800 374.186,17.160 374.460,17.600 374.600 C 18.040 374.740,18.400 375.032,18.400 375.249 C 18.400 375.467,20.191 377.389,22.381 379.522 C 27.648 384.653,28.681 385.563,29.832 386.087 C 30.364 386.330,30.800 386.680,30.800 386.864 C 30.800 387.049,31.025 387.200,31.300 387.201 C 31.575 387.201,32.430 387.741,33.200 388.400 C 33.970 389.059,34.825 389.599,35.100 389.599 C 35.375 389.600,35.600 389.759,35.600 389.953 C 35.600 390.297,37.096 390.930,37.700 390.843 C 37.865 390.819,38.000 390.980,38.000 391.200 C 38.000 391.420,38.360 391.600,38.800 391.600 C 39.240 391.600,39.600 391.780,39.600 392.000 C 39.600 392.220,39.960 392.400,40.400 392.400 C 40.840 392.400,41.200 392.580,41.200 392.800 C 41.200 393.020,41.434 393.200,41.720 393.200 C 42.456 393.200,44.393 394.141,44.397 394.500 C 44.399 394.665,44.724 394.800,45.120 394.800 C 46.014 394.800,47.993 395.694,47.997 396.100 C 47.999 396.265,48.540 396.400,49.200 396.400 C 49.860 396.400,50.400 396.580,50.400 396.800 C 50.400 397.020,51.019 397.200,51.776 397.200 C 52.533 397.200,53.264 397.380,53.400 397.600 C 53.536 397.820,54.177 398.000,54.824 398.000 C 55.471 398.000,56.000 398.180,56.000 398.400 C 56.000 398.620,56.705 398.800,57.567 398.800 C 58.464 398.800,59.204 399.013,59.300 399.300 C 59.598 400.193,340.800 400.021,340.800 399.129 C 340.800 398.948,341.394 398.800,342.120 398.800 C 342.846 398.800,343.611 398.629,343.821 398.419 C 344.030 398.210,344.865 397.994,345.675 397.939 C 346.485 397.885,347.059 397.696,346.951 397.520 C 346.842 397.344,347.393 397.200,348.176 397.200 C 348.959 397.200,349.600 397.020,349.600 396.800 C 349.600 396.580,350.151 396.400,350.824 396.400 C 351.537 396.400,351.944 396.233,351.800 396.000 C 351.664 395.780,351.836 395.600,352.182 395.600 C 352.528 395.600,353.123 395.441,353.505 395.247 C 354.178 394.904,354.750 394.659,357.500 393.536 C 358.215 393.244,358.800 392.869,358.800 392.702 C 358.800 392.536,359.160 392.400,359.600 392.400 C 360.040 392.400,360.400 392.220,360.400 392.000 C 360.400 391.780,360.664 391.600,360.986 391.600 C 361.745 391.600,364.400 390.336,364.400 389.974 C 364.400 389.822,364.940 389.473,365.600 389.200 C 366.260 388.927,366.800 388.567,366.800 388.400 C 366.800 388.233,367.340 387.873,368.000 387.600 C 368.660 387.327,369.200 386.945,369.200 386.751 C 369.200 386.558,369.468 386.400,369.797 386.400 C 370.125 386.400,370.618 386.040,370.893 385.600 C 371.168 385.160,371.527 384.800,371.692 384.800 C 372.763 384.800,386.400 370.889,386.400 369.796 C 386.400 369.565,386.760 369.117,387.200 368.800 C 387.640 368.483,388.000 367.903,388.000 367.512 C 388.000 367.120,388.158 366.800,388.351 366.800 C 388.545 366.800,388.927 366.260,389.200 365.600 C 389.473 364.940,389.822 364.400,389.974 364.400 C 390.336 364.400,391.600 361.745,391.600 360.986 C 391.600 360.664,391.780 360.400,392.000 360.400 C 392.220 360.400,392.400 360.040,392.400 359.600 C 392.400 359.160,392.536 358.800,392.702 358.800 C 392.869 358.800,393.244 358.215,393.536 357.500 C 393.828 356.785,394.217 355.840,394.400 355.400 C 394.583 354.960,394.972 354.015,395.264 353.300 C 395.556 352.585,395.931 352.000,396.098 352.000 C 396.264 352.000,396.400 351.460,396.400 350.800 C 396.400 350.140,396.580 349.600,396.800 349.600 C 397.020 349.600,397.179 349.465,397.153 349.300 C 397.003 348.350,397.248 346.782,397.520 346.951 C 397.696 347.059,397.885 346.485,397.939 345.675 C 397.994 344.865,398.210 344.030,398.419 343.821 C 398.629 343.611,398.800 342.846,398.800 342.120 C 398.800 341.394,398.949 340.800,399.132 340.800 C 400.022 340.800,400.190 59.597,399.300 59.300 C 399.016 59.205,398.800 58.471,398.800 57.600 C 398.800 56.757,398.637 56.007,398.437 55.933 C 398.237 55.860,398.016 55.170,397.946 54.400 C 397.875 53.630,397.679 52.900,397.511 52.778 C 397.342 52.655,397.164 52.070,397.115 51.478 C 397.066 50.885,396.885 50.400,396.713 50.400 C 396.541 50.400,396.400 49.860,396.400 49.200 C 396.400 48.540,396.220 48.000,396.000 48.000 C 395.780 48.000,395.600 47.640,395.600 47.200 C 395.600 46.760,395.459 46.400,395.287 46.400 C 395.115 46.400,394.735 45.590,394.443 44.600 C 394.151 43.610,393.752 42.800,393.556 42.800 C 393.360 42.800,393.200 42.440,393.200 42.000 C 393.200 41.560,393.020 41.200,392.800 41.200 C 392.580 41.200,392.400 40.840,392.400 40.400 C 392.400 39.960,392.220 39.600,392.000 39.600 C 391.780 39.600,391.600 39.297,391.600 38.926 C 391.600 38.555,391.195 37.806,390.700 37.261 C 390.205 36.717,390.023 36.399,390.295 36.556 C 390.629 36.748,390.713 36.639,390.553 36.221 C 390.422 35.879,390.154 35.600,389.957 35.600 C 389.761 35.600,389.600 35.364,389.600 35.075 C 389.600 34.787,389.244 34.169,388.809 33.701 C 388.373 33.234,387.968 32.615,387.909 32.326 C 387.849 32.037,387.513 31.530,387.163 31.200 C 386.812 30.870,386.452 30.386,386.363 30.125 C 385.901 28.776,371.200 13.723,371.200 14.599 C 371.200 14.852,370.473 14.305,368.944 12.900 C 368.405 12.405,367.785 12.000,367.566 12.000 C 367.170 12.000,364.786 10.444,364.396 9.932 C 364.284 9.785,363.928 9.605,363.606 9.532 C 363.283 9.459,362.777 9.175,362.481 8.900 C 362.185 8.625,361.596 8.400,361.171 8.400 C 360.747 8.400,360.400 8.220,360.400 8.000 C 360.400 7.780,360.055 7.600,359.633 7.600 C 359.212 7.600,358.807 7.457,358.733 7.281 C 358.553 6.851,354.961 5.200,354.204 5.200 C 353.872 5.200,353.600 5.020,353.600 4.800 C 353.600 4.580,353.240 4.400,352.800 4.400 C 352.360 4.400,352.000 4.220,352.000 4.000 C 352.000 3.780,351.460 3.600,350.800 3.600 C 350.140 3.600,349.600 3.420,349.600 3.200 C 349.600 2.980,349.060 2.800,348.400 2.800 C 347.740 2.800,347.200 2.657,347.200 2.482 C 347.200 2.307,346.525 2.119,345.700 2.064 C 344.875 2.010,344.140 1.793,344.067 1.582 C 343.993 1.372,343.243 1.200,342.400 1.200 C 341.529 1.200,340.795 0.984,340.700 0.700 C 340.544 0.233,68.615 -0.165,61.500 0.292 M255.200 100.585 C 264.653 102.427,272.546 105.953,279.736 111.543 C 303.075 129.689,306.934 166.490,287.837 188.800 C 272.948 206.196,250.101 212.841,229.000 205.913 C 227.506 205.423,226.699 205.101,224.304 204.040 C 223.262 203.578,222.322 203.200,222.217 203.200 C 221.608 203.200,214.582 198.751,212.273 196.904 C 204.892 190.998,198.514 182.608,195.546 174.900 C 195.356 174.405,195.038 173.595,194.840 173.100 C 191.130 163.813,190.496 150.569,193.265 140.200 C 193.791 138.233,194.350 136.518,194.894 135.200 C 195.121 134.650,195.485 133.750,195.703 133.200 C 195.920 132.650,196.650 131.120,197.325 129.800 C 197.999 128.480,198.742 126.996,198.975 126.503 C 199.209 126.010,199.535 125.605,199.700 125.603 C 199.865 125.601,200.000 125.363,200.000 125.074 C 200.000 124.184,206.567 116.295,209.053 114.198 C 210.344 113.109,211.490 112.112,211.600 111.982 C 213.329 109.944,221.388 105.297,226.645 103.305 C 229.457 102.240,230.948 101.829,237.000 100.448 C 239.677 99.837,251.833 99.929,255.200 100.585 M129.200 116.584 C 135.058 116.849,139.216 118.785,143.805 123.387 C 148.376 127.971,149.425 130.294,151.579 140.600 C 151.809 141.700,152.318 144.130,152.710 146.000 L 153.424 149.400 164.412 149.616 C 170.455 149.735,175.424 149.870,175.454 149.916 C 175.484 149.962,175.497 151.755,175.484 153.900 C 175.451 159.316,176.238 165.749,177.600 171.200 C 177.847 172.190,178.149 173.497,178.271 174.105 C 178.393 174.713,178.651 175.308,178.846 175.429 C 179.041 175.549,179.200 175.999,179.200 176.429 C 179.200 176.859,179.359 177.523,179.553 177.905 C 179.748 178.287,180.089 179.050,180.313 179.600 C 186.041 193.713,194.945 204.792,206.955 212.750 C 210.484 215.088,220.185 219.999,221.276 220.000 C 221.648 220.000,222.064 220.180,222.200 220.400 C 222.336 220.620,222.876 220.800,223.400 220.800 C 223.924 220.800,224.451 220.959,224.571 221.154 C 224.692 221.349,225.287 221.607,225.895 221.729 C 226.503 221.851,227.810 222.153,228.800 222.400 C 239.993 225.197,251.607 225.197,262.800 222.400 C 263.790 222.153,265.097 221.851,265.705 221.729 C 266.313 221.607,266.908 221.349,267.029 221.154 C 267.149 220.959,267.676 220.800,268.200 220.800 C 268.724 220.800,269.264 220.620,269.400 220.400 C 269.536 220.180,269.952 219.999,270.324 219.998 C 271.454 219.995,280.562 215.395,284.536 212.821 C 288.778 210.073,289.419 209.884,289.025 211.500 C 288.878 212.105,288.611 213.320,288.432 214.200 C 288.253 215.080,287.431 219.040,286.604 223.000 C 285.778 226.960,284.945 231.010,284.753 232.000 C 283.633 237.783,283.246 238.796,281.593 240.269 C 279.164 242.434,281.437 242.363,213.262 242.382 C 150.321 242.400,149.916 242.405,148.786 243.210 C 145.800 245.336,145.535 249.156,148.189 251.811 L 149.979 253.600 214.171 253.600 C 283.627 253.600,279.554 253.464,281.826 255.851 C 285.688 259.908,283.432 266.333,277.915 266.991 C 273.236 267.548,147.872 267.033,146.600 266.451 C 142.332 264.497,140.824 263.530,138.647 261.353 C 136.476 259.182,134.995 256.857,133.688 253.567 C 129.188 242.238,139.404 228.820,152.540 228.804 L 156.081 228.800 155.869 227.100 C 155.753 226.165,155.473 224.590,155.246 223.600 C 155.020 222.610,154.631 220.810,154.382 219.600 C 153.874 217.129,153.399 214.902,152.782 212.100 C 152.552 211.055,152.213 209.390,152.029 208.400 C 151.844 207.410,151.498 205.700,151.258 204.600 C 149.857 198.163,148.267 190.604,147.767 188.000 C 147.450 186.350,147.009 184.190,146.787 183.200 C 146.565 182.210,146.283 180.680,146.161 179.800 C 146.039 178.920,145.784 177.840,145.594 177.400 C 145.405 176.960,145.158 175.970,145.047 175.200 C 144.936 174.430,144.643 172.900,144.396 171.800 C 144.150 170.700,143.851 169.080,143.733 168.200 C 143.615 167.320,143.356 166.429,143.159 166.220 C 142.962 166.011,142.800 165.077,142.800 164.144 C 142.800 163.211,142.620 162.336,142.400 162.200 C 142.180 162.064,142.000 161.279,142.000 160.456 C 142.000 159.633,141.838 158.789,141.641 158.580 C 141.444 158.371,141.185 157.480,141.067 156.600 C 140.949 155.720,140.652 154.100,140.408 153.000 C 140.163 151.900,139.803 150.190,139.606 149.200 C 138.926 145.770,138.760 144.993,138.411 143.600 C 138.218 142.830,137.845 141.120,137.582 139.800 C 135.818 130.924,134.029 130.006,118.451 129.982 C 106.462 129.964,104.135 129.705,102.255 128.184 C 97.742 124.533,99.432 117.465,105.074 116.392 C 106.545 116.113,121.371 116.231,129.200 116.584 M242.471 126.078 C 238.504 128.001,237.614 130.412,237.606 139.256 L 237.600 145.912 230.266 146.057 L 222.933 146.203 220.971 147.415 C 215.030 151.089,216.128 159.669,222.828 161.920 C 223.712 162.217,226.800 162.400,230.928 162.400 L 237.600 162.400 237.606 169.100 C 237.615 179.518,239.581 182.854,245.708 182.847 C 252.144 182.841,254.000 179.775,254.000 169.150 L 254.000 162.400 260.700 162.394 C 270.806 162.385,274.800 160.070,274.800 154.223 C 274.800 148.371,271.415 146.296,261.500 146.073 L 254.000 145.904 254.000 139.298 C 254.000 135.506,253.806 132.044,253.543 131.169 C 252.129 126.450,246.779 123.990,242.471 126.078 M191.505 275.153 C 191.887 275.348,192.740 275.753,193.400 276.053 C 201.028 279.528,202.738 290.483,196.611 296.611 C 190.483 302.738,179.528 301.028,176.053 293.400 C 175.753 292.740,175.348 291.887,175.153 291.505 C 173.999 289.237,175.273 281.190,176.900 280.467 C 177.065 280.393,177.200 280.154,177.200 279.936 C 177.200 279.419,179.419 277.200,179.936 277.200 C 180.154 277.200,180.393 277.065,180.467 276.900 C 181.179 275.296,189.270 274.016,191.505 275.153 M258.305 275.153 C 258.687 275.348,259.540 275.753,260.200 276.053 C 270.365 280.684,268.749 296.454,257.749 299.968 C 251.804 301.867,242.000 296.690,242.000 291.652 C 242.000 291.209,241.820 290.736,241.600 290.600 C 241.380 290.464,241.200 289.114,241.200 287.600 C 241.200 286.086,241.380 284.736,241.600 284.600 C 241.820 284.464,242.000 284.009,242.000 283.589 C 242.000 281.630,245.629 277.269,248.298 276.022 C 248.904 275.739,249.670 275.359,250.000 275.177 C 250.812 274.731,257.437 274.711,258.305 275.153 " stroke="none" fill="#fcfcdc" fill-rule="evenodd"></path><path id="path3" d="M110.925 117.099 C 114.404 117.166,119.984 117.166,123.325 117.099 C 126.666 117.032,123.820 116.978,117.000 116.978 C 110.180 116.978,107.446 117.033,110.925 117.099 M102.214 118.441 C 101.436 119.124,100.800 119.884,100.800 120.130 C 100.800 120.377,101.091 120.163,101.447 119.655 C 101.802 119.147,102.657 118.388,103.347 117.967 C 104.036 117.547,104.381 117.202,104.114 117.201 C 103.847 117.201,102.992 117.759,102.214 118.441 M130.433 117.347 C 130.525 117.428,131.320 117.614,132.200 117.762 C 133.346 117.954,133.630 117.914,133.200 117.621 C 132.660 117.253,130.032 116.993,130.433 117.347 M139.600 120.525 C 139.600 120.624,140.261 121.209,141.068 121.825 C 141.876 122.441,142.411 122.741,142.256 122.491 C 141.940 121.979,139.600 120.247,139.600 120.525 M100.243 121.433 C 99.912 122.295,99.947 124.098,100.306 124.662 C 100.468 124.916,100.600 124.151,100.600 122.962 C 100.600 120.571,100.590 120.528,100.243 121.433 M145.305 126.162 C 145.797 126.934,146.347 127.574,146.527 127.583 C 146.889 127.602,145.384 125.361,144.786 124.991 C 144.579 124.863,144.812 125.390,145.305 126.162 M100.800 125.864 C 100.800 126.082,101.295 126.697,101.900 127.230 L 103.000 128.200 102.000 127.000 C 101.450 126.340,100.955 125.725,100.900 125.633 C 100.845 125.542,100.800 125.645,100.800 125.864 M108.600 129.078 C 116.340 129.355,129.885 129.374,129.463 129.106 C 129.208 128.944,123.690 128.846,117.200 128.888 C 110.710 128.929,106.840 129.015,108.600 129.078 M135.183 132.700 C 135.926 133.635,136.606 134.400,136.694 134.400 C 136.977 134.400,135.263 132.149,134.535 131.564 C 134.148 131.254,134.440 131.765,135.183 132.700 M149.256 134.000 C 149.256 134.330,149.411 134.960,149.600 135.400 C 149.817 135.904,149.944 135.978,149.944 135.600 C 149.944 135.270,149.789 134.640,149.600 134.200 C 149.383 133.696,149.256 133.622,149.256 134.000 M137.634 137.600 C 137.646 137.930,137.811 138.560,138.000 139.000 L 138.344 139.800 138.366 139.000 C 138.378 138.560,138.213 137.930,138.000 137.600 C 137.655 137.067,137.615 137.067,137.634 137.600 M150.087 137.800 C 150.091 138.240,150.232 139.140,150.400 139.800 C 150.674 140.878,150.706 140.898,150.713 140.000 C 150.717 139.450,150.576 138.550,150.400 138.000 C 150.149 137.216,150.081 137.173,150.087 137.800 M138.434 141.200 C 138.446 141.530,138.611 142.160,138.800 142.600 L 139.144 143.400 139.166 142.600 C 139.178 142.160,139.013 141.530,138.800 141.200 C 138.455 140.667,138.415 140.667,138.434 141.200 M151.062 142.600 C 151.196 143.480,151.372 144.275,151.453 144.367 C 151.756 144.710,151.529 142.568,151.181 141.800 C 150.929 141.242,150.893 141.485,151.062 142.600 M139.268 144.800 C 139.288 145.839,139.918 147.546,139.932 146.600 C 139.938 146.160,139.789 145.440,139.600 145.000 C 139.389 144.510,139.261 144.432,139.268 144.800 M140.046 148.800 C 140.065 149.130,140.224 149.850,140.400 150.400 L 140.720 151.400 140.754 150.400 C 140.773 149.850,140.613 149.130,140.400 148.800 C 140.055 148.267,140.016 148.267,140.046 148.800 M152.400 149.281 C 152.400 150.322,153.218 150.400,164.205 150.400 C 173.912 150.400,174.758 150.455,174.911 151.100 C 175.039 151.633,175.069 151.609,175.039 151.000 C 175.001 150.223,174.684 150.197,164.200 150.097 C 154.617 150.005,153.344 149.918,152.900 149.320 C 152.460 148.729,152.400 148.724,152.400 149.281 M141.044 153.400 C 141.373 154.871,141.602 155.190,141.594 154.167 C 141.591 153.745,141.405 153.130,141.182 152.800 C 140.885 152.362,140.848 152.524,141.044 153.400 M141.840 157.466 C 142.208 158.999,142.400 159.144,142.400 157.890 C 142.400 157.317,142.213 156.732,141.984 156.590 C 141.711 156.421,141.662 156.723,141.840 157.466 M174.828 160.033 C 174.844 161.225,175.010 162.560,175.197 163.000 C 175.403 163.484,175.449 162.692,175.313 161.000 C 175.039 157.587,174.790 157.090,174.828 160.033 M142.644 161.000 C 142.973 162.471,143.202 162.790,143.194 161.767 C 143.191 161.345,143.005 160.730,142.782 160.400 C 142.485 159.962,142.448 160.124,142.644 161.000 M143.468 165.000 C 143.771 166.977,144.002 167.314,143.994 165.767 C 143.991 165.125,143.816 164.330,143.605 164.000 C 143.345 163.591,143.301 163.910,143.468 165.000 M175.606 166.233 C 175.609 166.875,175.796 167.670,176.021 168.000 C 176.314 168.430,176.354 168.146,176.162 167.000 C 175.830 165.016,175.598 164.696,175.606 166.233 M144.258 168.800 C 144.575 170.525,144.802 170.851,144.794 169.567 C 144.791 169.035,144.611 168.330,144.394 168.000 C 144.118 167.578,144.077 167.815,144.258 168.800 M176.428 170.276 C 176.413 170.758,176.580 171.264,176.800 171.400 C 177.273 171.692,177.273 171.301,176.800 170.200 C 176.469 169.429,176.455 169.431,176.428 170.276 M145.058 172.400 C 145.375 174.125,145.602 174.451,145.594 173.167 C 145.591 172.635,145.411 171.930,145.194 171.600 C 144.918 171.178,144.877 171.415,145.058 172.400 M145.862 176.200 C 145.996 177.080,146.172 177.875,146.253 177.967 C 146.556 178.310,146.329 176.168,145.981 175.400 C 145.729 174.842,145.693 175.085,145.862 176.200 M146.668 180.200 C 146.971 182.177,147.202 182.514,147.194 180.967 C 147.191 180.325,147.016 179.530,146.805 179.200 C 146.545 178.791,146.501 179.110,146.668 180.200 M147.468 183.800 C 147.771 185.777,148.002 186.114,147.994 184.567 C 147.991 183.925,147.816 183.130,147.605 182.800 C 147.345 182.391,147.301 182.710,147.468 183.800 M183.400 188.400 C 183.741 189.060,184.111 189.600,184.221 189.600 C 184.331 189.600,184.141 189.060,183.800 188.400 C 183.459 187.740,183.089 187.200,182.979 187.200 C 182.869 187.200,183.059 187.740,183.400 188.400 M148.428 188.433 C 148.444 188.965,148.619 189.760,148.819 190.200 C 149.071 190.758,149.107 190.515,148.938 189.400 C 148.655 187.543,148.387 187.036,148.428 188.433 M185.277 191.525 C 186.219 193.082,188.317 195.888,187.726 194.800 C 186.946 193.365,184.715 190.000,184.543 190.000 C 184.439 190.000,184.770 190.686,185.277 191.525 M150.028 196.033 C 150.044 196.565,150.219 197.360,150.419 197.800 C 150.671 198.358,150.707 198.115,150.538 197.000 C 150.255 195.143,149.987 194.636,150.028 196.033 M190.040 198.239 C 190.885 199.505,193.231 202.104,193.382 201.942 C 193.455 201.864,192.607 200.810,191.497 199.600 C 190.387 198.390,189.731 197.777,190.040 198.239 M150.828 200.033 C 150.844 200.565,151.019 201.360,151.219 201.800 C 151.471 202.358,151.507 202.115,151.338 201.000 C 151.055 199.143,150.787 198.636,150.828 200.033 M195.790 204.790 C 197.090 206.104,198.221 207.112,198.302 207.031 C 198.470 206.864,193.978 202.400,193.642 202.400 C 193.523 202.400,194.489 203.475,195.790 204.790 M151.687 203.600 C 151.683 204.150,151.824 205.050,152.000 205.600 C 152.431 206.944,152.431 205.492,152.000 203.800 C 151.726 202.722,151.694 202.702,151.687 203.600 M152.456 207.800 C 152.456 208.240,152.611 208.960,152.800 209.400 L 153.144 210.200 153.144 209.400 C 153.144 208.960,152.989 208.240,152.800 207.800 L 152.456 207.000 152.456 207.800 M200.400 208.826 C 202.285 210.565,204.400 212.179,204.400 211.878 C 204.400 211.781,203.095 210.681,201.500 209.433 C 199.432 207.816,199.117 207.642,200.400 208.826 M153.268 211.400 C 153.262 211.840,153.411 212.560,153.600 213.000 C 154.038 214.019,154.038 212.968,153.600 211.600 C 153.343 210.796,153.277 210.757,153.268 211.400 M284.490 213.366 C 281.810 215.203,280.611 216.248,282.600 215.013 C 285.360 213.300,287.763 211.602,287.395 211.623 C 287.178 211.636,285.871 212.420,284.490 213.366 M204.800 212.115 C 204.800 212.376,209.716 215.631,211.500 216.550 C 213.815 217.744,212.880 216.962,209.700 215.046 C 207.995 214.018,206.195 212.891,205.700 212.540 C 205.205 212.189,204.800 211.998,204.800 212.115 M154.034 215.600 C 154.046 215.930,154.211 216.560,154.400 217.000 L 154.744 217.800 154.766 217.000 C 154.778 216.560,154.613 215.930,154.400 215.600 C 154.055 215.067,154.015 215.067,154.034 215.600 M279.100 216.626 C 278.055 217.170,277.200 217.705,277.200 217.814 C 277.200 217.924,278.100 217.557,279.200 217.000 C 280.300 216.443,281.200 215.900,281.200 215.793 C 281.200 215.529,281.236 215.514,279.100 216.626 M286.592 218.659 C 286.449 219.507,286.180 220.740,285.994 221.400 C 285.532 223.039,285.060 226.246,285.317 226.000 C 285.432 225.890,285.723 224.810,285.964 223.600 C 286.204 222.390,286.581 220.515,286.801 219.434 C 287.021 218.352,287.122 217.389,287.026 217.293 C 286.930 217.197,286.735 217.812,286.592 218.659 M274.800 218.800 C 274.030 219.222,273.580 219.566,273.800 219.566 C 274.020 219.566,274.830 219.222,275.600 218.800 C 276.370 218.378,276.820 218.034,276.600 218.034 C 276.380 218.034,275.570 218.378,274.800 218.800 M154.834 219.200 C 154.846 219.530,155.011 220.160,155.200 220.600 L 155.544 221.400 155.566 220.600 C 155.578 220.160,155.413 219.530,155.200 219.200 C 154.855 218.667,154.815 218.667,154.834 219.200 M155.656 222.800 C 155.656 223.130,155.811 223.760,156.000 224.200 C 156.217 224.704,156.344 224.778,156.344 224.400 C 156.344 224.070,156.189 223.440,156.000 223.000 C 155.783 222.496,155.656 222.422,155.656 222.800 M228.400 223.200 C 228.730 223.413,229.360 223.578,229.800 223.566 L 230.600 223.544 229.800 223.200 C 228.604 222.686,227.605 222.686,228.400 223.200 M261.800 223.200 L 261.000 223.544 261.800 223.566 C 262.240 223.578,262.870 223.413,263.200 223.200 C 263.995 222.686,262.996 222.686,261.800 223.200 M232.000 224.000 C 232.330 224.213,233.050 224.373,233.600 224.354 L 234.600 224.320 233.600 224.000 C 232.058 223.506,231.236 223.506,232.000 224.000 M258.200 224.000 L 257.400 224.344 258.200 224.366 C 258.640 224.378,259.270 224.213,259.600 224.000 C 260.395 223.486,259.396 223.486,258.200 224.000 M236.800 224.812 C 237.795 225.119,242.684 225.332,242.367 225.055 C 242.275 224.975,240.760 224.818,239.000 224.707 C 237.240 224.595,236.250 224.643,236.800 224.812 M251.800 224.800 L 249.400 225.066 251.600 225.093 C 252.810 225.108,254.250 224.976,254.800 224.800 C 256.014 224.411,255.313 224.411,251.800 224.800 M156.498 227.600 L 156.600 229.000 152.265 229.268 C 149.881 229.416,147.835 229.632,147.718 229.749 C 147.489 229.978,155.878 229.633,156.700 229.379 C 157.295 229.196,157.350 227.646,156.791 226.800 C 156.497 226.355,156.421 226.561,156.498 227.600 M284.849 227.000 C 284.816 227.440,284.696 228.250,284.583 228.800 L 284.377 229.800 284.806 228.819 C 285.042 228.279,285.161 227.469,285.072 227.019 C 284.913 226.221,284.907 226.221,284.849 227.000 M284.049 230.600 C 284.016 231.040,283.896 231.850,283.783 232.400 L 283.577 233.400 284.006 232.419 C 284.242 231.879,284.361 231.069,284.272 230.619 C 284.113 229.821,284.107 229.821,284.049 230.600 M142.200 232.079 C 139.144 234.253,135.189 238.831,135.205 240.178 C 135.207 240.410,135.669 239.790,136.232 238.800 C 137.530 236.512,139.654 234.290,142.195 232.559 C 143.292 231.811,144.012 231.206,143.795 231.213 C 143.578 231.220,142.860 231.609,142.200 232.079 M283.040 235.240 C 282.893 236.157,282.852 236.985,282.947 237.080 C 283.042 237.176,283.246 236.510,283.400 235.600 C 283.554 234.690,283.596 233.862,283.493 233.760 C 283.390 233.657,283.187 234.323,283.040 235.240 M280.890 239.457 C 279.811 240.581,279.515 241.061,280.090 240.757 C 281.053 240.246,282.799 238.406,282.800 237.900 C 282.800 237.472,282.778 237.490,280.890 239.457 M150.262 241.500 C 150.096 241.769,213.223 241.766,260.800 241.495 C 270.810 241.438,250.076 241.349,214.724 241.296 C 179.372 241.243,150.364 241.335,150.262 241.500 M133.856 243.684 C 133.721 244.188,133.632 245.320,133.658 246.200 C 133.697 247.520,133.759 247.380,134.013 245.400 C 134.337 242.878,134.270 242.141,133.856 243.684 M145.701 247.800 C 145.705 248.680,145.787 248.993,145.883 248.495 C 145.979 247.998,145.975 247.278,145.875 246.895 C 145.775 246.513,145.696 246.920,145.701 247.800 M133.638 250.000 C 133.624 250.990,133.770 252.049,133.963 252.354 C 134.179 252.695,134.241 252.158,134.124 250.954 C 133.860 248.245,133.668 247.867,133.638 250.000 M146.328 251.000 C 146.763 251.873,148.249 253.309,149.200 253.775 C 149.530 253.937,149.351 253.705,148.801 253.259 C 148.252 252.813,147.381 251.942,146.866 251.324 C 146.331 250.683,146.100 250.544,146.328 251.000 M134.400 253.484 C 134.400 254.051,135.563 256.800,135.802 256.800 C 135.907 256.800,135.696 256.035,135.332 255.100 C 134.595 253.207,134.400 252.869,134.400 253.484 M161.400 254.292 C 187.416 254.546,278.707 254.575,278.085 254.328 C 277.708 254.179,248.870 254.086,214.000 254.121 C 179.130 254.157,155.460 254.234,161.400 254.292 M282.909 260.400 C 282.909 261.390,282.987 261.795,283.082 261.300 C 283.178 260.805,283.178 259.995,283.082 259.500 C 282.987 259.005,282.909 259.410,282.909 260.400 M138.800 261.000 C 139.546 261.770,140.247 262.400,140.357 262.400 C 140.467 262.400,139.946 261.770,139.200 261.000 C 138.454 260.230,137.753 259.600,137.643 259.600 C 137.533 259.600,138.054 260.230,138.800 261.000 M281.236 264.557 C 280.981 264.863,280.234 265.338,279.574 265.611 C 278.914 265.884,278.453 266.187,278.550 266.283 C 278.807 266.541,280.973 265.356,281.578 264.626 C 281.864 264.282,282.008 264.000,281.898 264.000 C 281.788 264.000,281.490 264.251,281.236 264.557 M147.600 265.982 C 147.930 266.205,148.545 266.391,148.967 266.394 C 149.990 266.402,149.671 266.173,148.200 265.844 C 147.324 265.648,147.162 265.685,147.600 265.982 M189.600 275.600 C 189.930 275.813,190.560 275.978,191.000 275.966 L 191.800 275.944 191.000 275.600 C 189.804 275.086,188.805 275.086,189.600 275.600 M250.600 275.600 L 249.800 275.944 250.600 275.966 C 251.040 275.978,251.670 275.813,252.000 275.600 C 252.795 275.086,251.796 275.086,250.600 275.600 M256.400 275.582 C 256.730 275.805,257.345 275.991,257.767 275.994 C 258.790 276.002,258.471 275.773,257.000 275.444 C 256.124 275.248,255.962 275.285,256.400 275.582 M245.783 278.458 C 244.793 279.371,244.046 280.180,244.123 280.256 C 244.199 280.333,245.106 279.586,246.138 278.598 C 248.496 276.338,248.207 276.224,245.783 278.458 M178.596 278.804 C 177.966 279.462,177.582 280.000,177.743 280.000 C 178.156 280.000,180.122 277.988,179.913 277.780 C 179.819 277.686,179.226 278.146,178.596 278.804 M261.600 277.707 C 261.600 278.072,263.653 280.080,263.838 279.895 C 263.923 279.811,263.454 279.226,262.796 278.596 C 262.138 277.966,261.600 277.566,261.600 277.707 M264.586 281.500 C 264.935 282.215,265.306 282.800,265.410 282.800 C 265.808 282.800,265.552 282.163,264.767 281.200 L 263.952 280.200 264.586 281.500 M198.278 282.195 C 198.644 282.962,199.014 283.519,199.101 283.432 C 199.284 283.249,198.070 280.800,197.796 280.800 C 197.695 280.800,197.912 281.428,198.278 282.195 M265.634 283.600 C 265.646 283.930,265.811 284.560,266.000 285.000 L 266.344 285.800 266.366 285.000 C 266.378 284.560,266.213 283.930,266.000 283.600 C 265.655 283.067,265.615 283.067,265.634 283.600 M199.394 287.381 C 199.397 289.243,199.522 290.458,199.672 290.083 C 200.026 289.193,200.022 285.599,199.666 284.698 C 199.513 284.312,199.391 285.519,199.394 287.381 M241.840 286.300 C 241.711 287.345,241.766 288.830,241.962 289.600 C 242.260 290.771,242.325 290.460,242.359 287.700 C 242.405 284.009,242.194 283.439,241.840 286.300 M175.234 289.600 C 175.246 289.930,175.411 290.560,175.600 291.000 L 175.944 291.800 175.966 291.000 C 175.978 290.560,175.813 289.930,175.600 289.600 C 175.255 289.067,175.215 289.067,175.234 289.600 M265.200 292.278 C 265.200 292.503,264.728 293.384,264.152 294.233 C 263.575 295.083,263.407 295.526,263.778 295.218 C 264.619 294.520,265.738 292.405,265.429 292.096 C 265.303 291.970,265.200 292.052,265.200 292.278 M197.291 294.629 C 196.797 295.383,195.647 296.540,194.736 297.200 C 193.825 297.860,193.225 298.400,193.402 298.400 C 194.363 298.400,198.833 293.900,198.351 293.418 C 198.263 293.329,197.786 293.874,197.291 294.629 M243.582 293.902 C 244.163 295.072,246.546 297.448,247.698 298.007 C 248.578 298.434,248.581 298.429,247.800 297.806 C 246.117 296.463,245.357 295.729,244.265 294.387 C 243.643 293.623,243.336 293.405,243.582 293.902 M180.800 297.796 C 180.800 298.070,183.249 299.284,183.432 299.101 C 183.519 299.014,182.962 298.644,182.195 298.278 C 181.428 297.912,180.800 297.695,180.800 297.796 M184.698 299.666 C 185.599 300.022,189.193 300.026,190.083 299.672 C 190.458 299.522,189.243 299.397,187.381 299.394 C 185.519 299.391,184.312 299.513,184.698 299.666 M251.515 299.672 C 251.892 299.821,253.100 299.944,254.200 299.944 C 255.300 299.944,256.508 299.821,256.885 299.672 C 257.262 299.522,256.054 299.400,254.200 299.400 C 252.346 299.400,251.138 299.522,251.515 299.672 " stroke="none" fill="#fcde49" fill-rule="evenodd"></path><path id="path4" d="M237.000 100.448 C 230.948 101.829,229.457 102.240,226.645 103.305 C 223.687 104.426,221.640 105.415,217.800 107.578 C 216.325 108.408,212.064 111.436,211.600 111.982 C 211.490 112.112,210.344 113.109,209.053 114.198 C 206.567 116.295,200.000 124.184,200.000 125.074 C 200.000 125.363,199.865 125.601,199.700 125.603 C 199.535 125.605,199.209 126.010,198.975 126.503 C 198.742 126.996,197.999 128.480,197.325 129.800 C 196.650 131.120,195.920 132.650,195.703 133.200 C 195.485 133.750,195.121 134.650,194.894 135.200 C 191.150 144.261,190.483 157.784,193.265 168.200 C 193.759 170.049,194.327 171.816,194.840 173.100 C 195.038 173.595,195.356 174.405,195.546 174.900 C 198.514 182.608,204.892 190.998,212.273 196.904 C 214.582 198.751,221.608 203.200,222.217 203.200 C 222.322 203.200,223.262 203.578,224.304 204.040 C 239.152 210.618,255.275 210.161,270.188 202.738 C 287.030 194.355,299.150 176.536,299.802 159.200 L 299.960 155.000 299.411 159.400 C 299.110 161.820,298.748 164.250,298.607 164.800 C 298.466 165.350,298.161 166.610,297.930 167.600 C 297.008 171.544,293.515 180.148,292.409 181.200 C 292.293 181.310,291.963 181.859,291.675 182.420 C 289.441 186.768,281.597 194.990,276.386 198.446 C 235.820 225.355,183.928 191.038,193.146 143.400 C 195.867 129.338,206.040 114.952,218.200 107.971 C 221.404 106.132,225.816 104.020,226.476 104.010 C 226.848 104.005,227.251 103.841,227.370 103.648 C 227.490 103.454,227.996 103.197,228.494 103.076 C 228.992 102.955,230.120 102.662,231.000 102.425 C 252.216 96.708,273.476 103.386,287.633 120.215 C 289.115 121.978,292.000 126.290,292.000 126.745 C 292.000 126.958,292.137 127.193,292.304 127.267 C 292.796 127.483,295.876 133.996,296.718 136.600 C 298.365 141.701,298.757 143.462,299.428 148.800 L 299.957 153.000 299.798 149.000 C 299.432 139.807,295.083 128.786,288.457 120.264 C 287.604 119.166,280.834 112.396,279.736 111.543 C 272.546 105.953,264.653 102.427,255.200 100.585 C 251.833 99.929,239.677 99.837,237.000 100.448 M107.911 116.293 C 108.851 116.378,110.291 116.377,111.111 116.291 C 111.930 116.205,111.160 116.136,109.400 116.137 C 107.640 116.139,106.970 116.209,107.911 116.293 M102.965 117.156 C 101.659 117.952,100.000 119.831,100.000 120.513 C 100.000 120.736,100.406 120.307,100.903 119.559 C 101.400 118.812,102.608 117.795,103.588 117.300 C 104.568 116.805,105.106 116.401,104.785 116.401 C 104.463 116.402,103.644 116.742,102.965 117.156 M128.705 116.683 C 129.202 116.779,129.922 116.775,130.305 116.675 C 130.687 116.575,130.280 116.496,129.400 116.501 C 128.520 116.505,128.207 116.587,128.705 116.683 M132.400 117.188 C 133.170 117.351,134.790 117.883,136.000 118.371 C 137.210 118.858,138.020 119.095,137.800 118.896 C 137.038 118.207,133.089 116.800,132.047 116.846 C 131.170 116.885,131.227 116.940,132.400 117.188 M139.686 120.200 C 140.495 120.750,141.299 121.200,141.472 121.200 C 141.644 121.200,141.123 120.750,140.314 120.200 C 139.505 119.650,138.701 119.200,138.528 119.200 C 138.356 119.200,138.877 119.650,139.686 120.200 M99.714 123.000 C 99.717 124.100,99.795 124.503,99.887 123.895 C 99.979 123.286,99.977 122.386,99.882 121.895 C 99.787 121.403,99.711 121.900,99.714 123.000 M143.583 123.300 C 144.564 124.345,145.419 125.200,145.483 125.200 C 145.784 125.200,145.466 124.841,143.700 123.183 L 141.800 121.400 143.583 123.300 M242.000 125.670 C 237.936 128.030,237.200 130.058,237.200 138.903 L 237.200 145.514 229.687 145.657 L 222.174 145.800 220.215 147.207 C 214.681 151.182,215.314 159.097,221.393 161.955 C 223.009 162.714,223.900 162.800,230.196 162.800 L 237.200 162.800 237.200 169.454 C 237.200 179.937,239.447 183.620,245.826 183.591 C 252.272 183.563,254.394 180.073,254.398 169.500 L 254.400 162.800 261.404 162.800 C 271.742 162.800,275.200 160.602,275.200 154.033 C 275.200 147.830,271.583 145.626,261.380 145.610 C 253.875 145.598,254.402 146.125,254.390 138.620 C 254.377 129.935,253.939 128.619,250.226 126.100 C 247.850 124.488,244.350 124.305,242.000 125.670 M100.360 125.800 C 101.034 127.105,101.588 127.828,101.585 127.400 C 101.583 127.180,101.214 126.550,100.764 126.000 C 100.221 125.336,100.085 125.269,100.360 125.800 M249.016 126.050 C 253.129 127.983,254.000 130.298,254.000 139.298 L 254.000 145.904 261.500 146.073 C 271.415 146.296,274.800 148.371,274.800 154.223 C 274.800 160.070,270.806 162.385,260.700 162.394 L 254.000 162.400 254.000 169.150 C 254.000 179.775,252.144 182.841,245.708 182.847 C 239.581 182.854,237.615 179.518,237.606 169.100 L 237.600 162.400 230.928 162.400 C 226.800 162.400,223.712 162.217,222.828 161.920 C 216.128 159.669,215.030 151.089,220.971 147.415 L 222.933 146.203 230.266 146.057 L 237.600 145.912 237.606 139.256 C 237.610 134.691,237.783 132.109,238.156 131.037 C 239.819 126.261,244.698 124.020,249.016 126.050 M146.000 125.760 C 146.000 126.300,147.668 128.865,147.881 128.652 C 147.986 128.548,147.605 127.776,147.036 126.938 C 146.466 126.100,146.000 125.570,146.000 125.760 M105.800 129.600 C 106.240 129.789,111.910 129.929,118.400 129.911 C 125.652 129.891,129.198 129.765,127.600 129.586 C 123.878 129.167,104.822 129.180,105.800 129.600 M148.713 131.019 C 149.084 132.020,149.452 132.643,149.532 132.404 C 149.674 131.978,148.519 129.200,148.200 129.200 C 148.111 129.200,148.342 130.019,148.713 131.019 M132.600 131.054 C 132.820 131.248,133.629 131.945,134.399 132.603 L 135.797 133.800 134.799 132.663 C 134.249 132.038,133.440 131.341,133.000 131.114 C 132.560 130.888,132.380 130.861,132.600 131.054 M149.833 134.200 C 150.061 135.490,150.496 137.526,151.159 140.400 C 151.387 141.390,151.649 142.560,151.741 143.000 C 151.867 143.607,151.918 143.549,151.954 142.760 C 151.979 142.188,151.839 141.198,151.643 140.560 C 151.447 139.922,151.069 138.320,150.804 137.000 C 150.287 134.425,149.443 131.992,149.833 134.200 M135.764 134.342 C 135.881 134.531,136.166 135.186,136.399 135.798 C 136.632 136.410,136.921 136.813,137.041 136.693 C 137.278 136.456,136.115 134.000,135.766 134.000 C 135.649 134.000,135.648 134.154,135.764 134.342 M137.228 138.033 C 137.244 138.565,137.419 139.360,137.619 139.800 C 137.871 140.358,137.907 140.115,137.738 139.000 C 137.455 137.143,137.187 136.636,137.228 138.033 M138.006 141.833 C 138.009 142.475,138.196 143.270,138.421 143.600 C 138.714 144.030,138.754 143.746,138.562 142.600 C 138.230 140.616,137.998 140.296,138.006 141.833 M138.806 145.633 C 138.809 146.165,138.989 146.870,139.206 147.200 C 139.482 147.622,139.523 147.385,139.342 146.400 C 139.025 144.675,138.798 144.349,138.806 145.633 M152.428 146.433 C 152.444 146.965,152.619 147.760,152.819 148.200 C 153.071 148.758,153.107 148.515,152.938 147.400 C 152.655 145.543,152.387 145.036,152.428 146.433 M139.646 149.600 C 139.627 150.150,139.787 150.870,140.000 151.200 C 140.494 151.964,140.494 151.142,140.000 149.600 L 139.680 148.600 139.646 149.600 M153.200 149.700 C 153.200 149.865,158.105 149.962,164.100 149.916 C 174.978 149.833,173.729 149.697,160.300 149.503 C 156.394 149.446,153.199 149.535,153.200 149.700 M175.293 151.200 C 175.293 151.970,175.375 152.285,175.476 151.900 C 175.576 151.515,175.576 150.885,175.476 150.500 C 175.375 150.115,175.293 150.430,175.293 151.200 M140.446 153.200 C 140.427 153.750,140.587 154.470,140.800 154.800 C 141.294 155.564,141.294 154.742,140.800 153.200 L 140.480 152.200 140.446 153.200 M141.200 157.310 C 141.200 157.883,141.387 158.468,141.616 158.610 C 141.889 158.779,141.938 158.477,141.760 157.734 C 141.392 156.201,141.200 156.056,141.200 157.310 M175.270 158.600 C 175.264 159.260,175.403 160.610,175.580 161.600 L 175.900 163.400 175.910 161.400 C 175.916 160.300,175.776 158.950,175.600 158.400 C 175.288 157.425,175.279 157.430,175.270 158.600 M142.028 161.076 C 142.013 161.558,142.180 162.064,142.400 162.200 C 142.873 162.492,142.873 162.101,142.400 161.000 C 142.069 160.229,142.055 160.231,142.028 161.076 M142.828 164.876 C 142.813 165.468,142.980 166.064,143.200 166.200 C 143.678 166.495,143.678 165.711,143.200 164.600 C 142.893 163.886,142.853 163.915,142.828 164.876 M176.046 165.600 C 176.065 165.930,176.224 166.650,176.400 167.200 L 176.720 168.200 176.754 167.200 C 176.773 166.650,176.613 165.930,176.400 165.600 C 176.055 165.067,176.016 165.067,176.046 165.600 M143.634 168.600 C 143.622 169.040,143.787 169.670,144.000 170.000 C 144.514 170.795,144.514 169.796,144.000 168.600 L 143.656 167.800 143.634 168.600 M176.834 169.600 C 176.846 169.930,177.011 170.560,177.200 171.000 L 177.544 171.800 177.566 171.000 C 177.578 170.560,177.413 169.930,177.200 169.600 C 176.855 169.067,176.815 169.067,176.834 169.600 M144.434 172.200 C 144.422 172.640,144.587 173.270,144.800 173.600 C 145.314 174.395,145.314 173.396,144.800 172.200 L 144.456 171.400 144.434 172.200 M145.228 176.276 C 145.213 176.758,145.380 177.264,145.600 177.400 C 146.073 177.692,146.073 177.301,145.600 176.200 C 145.269 175.429,145.255 175.431,145.228 176.276 M146.034 180.000 C 146.046 180.330,146.211 180.960,146.400 181.400 L 146.744 182.200 146.766 181.400 C 146.778 180.960,146.613 180.330,146.400 180.000 C 146.055 179.467,146.015 179.467,146.034 180.000 M180.817 181.900 C 180.839 182.301,182.362 185.070,182.383 184.749 C 182.411 184.335,181.205 181.600,180.995 181.600 C 180.888 181.600,180.808 181.735,180.817 181.900 M146.856 183.600 C 146.856 183.930,147.011 184.560,147.200 185.000 C 147.417 185.504,147.544 185.578,147.544 185.200 C 147.544 184.870,147.389 184.240,147.200 183.800 C 146.983 183.296,146.856 183.222,146.856 183.600 M147.687 187.400 C 147.691 187.840,147.832 188.740,148.000 189.400 C 148.274 190.478,148.306 190.498,148.313 189.600 C 148.317 189.050,148.176 188.150,148.000 187.600 C 147.749 186.816,147.681 186.773,147.687 187.400 M183.925 188.200 C 184.372 189.080,185.033 190.160,185.394 190.600 C 185.755 191.040,185.559 190.500,184.959 189.400 C 183.616 186.938,182.807 185.999,183.925 188.200 M148.662 192.200 C 148.796 193.080,148.972 193.875,149.053 193.967 C 149.356 194.310,149.129 192.168,148.781 191.400 C 148.529 190.842,148.493 191.085,148.662 192.200 M149.268 195.000 C 149.274 195.440,149.424 196.250,149.600 196.800 L 149.920 197.800 149.932 196.800 C 149.938 196.250,149.789 195.440,149.600 195.000 L 149.256 194.200 149.268 195.000 M189.191 196.388 C 189.657 197.041,190.242 197.702,190.491 197.856 C 190.741 198.011,190.441 197.476,189.825 196.668 C 188.488 194.915,187.984 194.692,189.191 196.388 M150.226 199.600 C 150.546 201.667,151.255 204.859,151.647 206.000 C 152.062 207.207,151.813 205.390,151.127 202.200 C 150.531 199.430,149.932 197.702,150.226 199.600 M191.293 199.200 C 191.568 199.640,191.931 200.000,192.100 200.000 C 192.269 200.000,192.182 199.640,191.907 199.200 C 191.632 198.760,191.269 198.400,191.100 198.400 C 190.931 198.400,191.018 198.760,191.293 199.200 M196.179 204.290 C 197.927 206.097,199.423 207.510,199.503 207.430 C 199.656 207.277,199.142 206.754,195.348 203.202 C 193.866 201.814,194.172 202.215,196.179 204.290 M152.006 208.433 C 152.009 209.185,152.192 210.070,152.412 210.400 C 152.691 210.819,152.733 210.458,152.550 209.200 C 152.225 206.959,151.998 206.640,152.006 208.433 M288.266 210.900 C 288.439 211.175,288.531 211.760,288.472 212.200 C 288.383 212.861,288.436 212.895,288.776 212.400 C 289.393 211.501,289.283 210.400,288.576 210.400 C 288.177 210.400,288.066 210.580,288.266 210.900 M152.806 212.233 C 152.809 212.875,152.996 213.670,153.221 214.000 C 153.514 214.430,153.554 214.146,153.362 213.000 C 153.030 211.016,152.798 210.696,152.806 212.233 M209.600 214.764 C 210.150 215.214,210.780 215.583,211.000 215.585 C 211.428 215.588,210.705 215.034,209.400 214.360 C 208.869 214.085,208.936 214.221,209.600 214.764 M278.200 216.431 C 275.780 217.723,273.939 218.784,274.108 218.790 C 274.560 218.805,281.264 215.372,282.200 214.646 C 283.448 213.678,282.915 213.916,278.200 216.431 M287.800 215.200 C 287.648 215.891,287.614 216.547,287.724 216.657 C 287.834 216.767,288.048 216.291,288.200 215.600 C 288.352 214.909,288.386 214.253,288.276 214.143 C 288.166 214.033,287.952 214.509,287.800 215.200 M153.628 215.833 C 153.644 216.475,153.816 217.360,154.010 217.800 C 154.247 218.334,154.286 218.002,154.127 216.800 C 153.846 214.680,153.588 214.180,153.628 215.833 M211.600 215.787 C 211.600 216.218,221.259 220.800,222.167 220.800 C 222.321 220.800,222.336 220.620,222.200 220.400 C 222.064 220.180,221.648 219.998,221.276 219.996 C 220.904 219.994,218.575 219.014,216.100 217.818 C 213.625 216.622,211.600 215.708,211.600 215.787 M287.056 218.884 C 286.921 219.388,286.827 220.160,286.846 220.600 C 286.865 221.040,287.045 220.698,287.246 219.840 C 287.636 218.178,287.470 217.340,287.056 218.884 M154.406 219.833 C 154.409 220.475,154.596 221.270,154.821 221.600 C 155.114 222.030,155.154 221.746,154.962 220.600 C 154.630 218.616,154.398 218.296,154.406 219.833 M271.505 219.563 C 269.521 220.290,268.295 221.117,269.965 220.602 C 271.531 220.120,273.600 219.205,273.600 218.995 C 273.600 218.888,273.555 218.816,273.500 218.835 C 273.445 218.854,272.547 219.182,271.505 219.563 M223.400 221.200 C 224.501 221.673,224.892 221.673,224.600 221.200 C 224.464 220.980,223.958 220.813,223.476 220.828 C 222.631 220.855,222.629 220.869,223.400 221.200 M267.000 221.200 C 266.708 221.673,267.099 221.673,268.200 221.200 C 268.971 220.869,268.969 220.855,268.124 220.828 C 267.642 220.813,267.136 220.980,267.000 221.200 M225.233 221.744 C 225.325 221.823,225.940 222.008,226.600 222.156 C 227.476 222.352,227.638 222.315,227.200 222.018 C 226.660 221.653,224.832 221.398,225.233 221.744 M264.400 222.018 C 263.962 222.315,264.124 222.352,265.000 222.156 C 266.471 221.827,266.790 221.598,265.767 221.606 C 265.345 221.609,264.730 221.795,264.400 222.018 M286.178 222.978 C 286.027 223.781,285.994 224.527,286.104 224.637 C 286.214 224.747,286.427 224.181,286.578 223.378 C 286.728 222.575,286.762 221.828,286.652 221.718 C 286.542 221.608,286.328 222.175,286.178 222.978 M228.800 222.800 C 230.342 223.294,231.164 223.294,230.400 222.800 C 230.070 222.587,229.350 222.427,228.800 222.446 L 227.800 222.480 228.800 222.800 M261.200 222.800 C 260.436 223.294,261.258 223.294,262.800 222.800 L 263.800 222.480 262.800 222.446 C 262.250 222.427,261.530 222.587,261.200 222.800 M155.206 223.633 C 155.209 224.165,155.389 224.870,155.606 225.200 C 155.882 225.622,155.923 225.385,155.742 224.400 C 155.425 222.675,155.198 222.349,155.206 223.633 M231.633 223.347 C 231.725 223.428,232.520 223.614,233.400 223.762 C 234.546 223.954,234.830 223.914,234.400 223.621 C 233.860 223.253,231.232 222.993,231.633 223.347 M257.200 223.621 C 256.770 223.914,257.054 223.954,258.200 223.762 C 260.184 223.430,260.504 223.198,258.967 223.206 C 258.325 223.209,257.530 223.396,257.200 223.621 M238.200 224.418 C 239.300 224.590,240.740 224.724,241.400 224.718 L 242.600 224.705 241.400 224.400 C 240.740 224.232,239.300 224.097,238.200 224.101 L 236.200 224.107 238.200 224.418 M250.400 224.400 C 248.977 224.856,251.078 224.869,253.600 224.420 L 255.400 224.100 253.400 224.090 C 252.300 224.084,250.950 224.224,250.400 224.400 M285.417 226.871 C 283.358 237.409,282.972 238.590,281.053 240.233 C 280.175 240.985,279.623 241.599,279.828 241.598 C 280.464 241.595,282.833 239.162,283.278 238.054 C 283.703 236.999,284.055 235.549,284.799 231.800 C 285.017 230.700,285.377 228.915,285.598 227.834 C 285.819 226.752,285.928 225.794,285.838 225.705 C 285.749 225.616,285.559 226.141,285.417 226.871 M156.000 227.600 C 156.000 228.260,156.149 228.800,156.331 228.800 C 156.513 228.800,156.582 228.260,156.485 227.600 C 156.388 226.940,156.240 226.400,156.155 226.400 C 156.070 226.400,156.000 226.940,156.000 227.600 M147.800 229.220 C 147.261 229.465,147.654 229.505,149.000 229.341 C 150.100 229.207,151.075 229.031,151.167 228.949 C 151.517 228.636,148.561 228.874,147.800 229.220 M141.200 232.036 C 136.848 235.559,133.713 240.372,133.381 244.037 L 133.222 245.800 133.600 244.043 C 134.528 239.729,138.241 234.359,142.000 231.897 C 142.550 231.537,142.820 231.239,142.600 231.234 C 142.380 231.230,141.750 231.591,141.200 232.036 M150.800 242.000 C 150.250 242.176,178.420 242.326,213.400 242.332 C 248.380 242.338,277.360 242.189,277.800 242.000 C 278.814 241.564,152.161 241.564,150.800 242.000 M133.020 248.975 C 133.218 252.413,133.654 254.014,135.152 256.800 C 136.217 258.779,137.600 260.692,137.600 260.185 C 137.600 260.008,137.353 259.579,137.052 259.231 C 135.175 257.069,133.737 253.172,133.203 248.800 L 132.837 245.800 133.020 248.975 M146.109 248.000 C 146.109 248.990,146.187 249.395,146.282 248.900 C 146.378 248.405,146.378 247.595,146.282 247.100 C 146.187 246.605,146.109 247.010,146.109 248.000 M146.728 250.600 C 147.163 251.473,148.649 252.909,149.600 253.375 C 149.930 253.537,149.751 253.305,149.201 252.859 C 148.652 252.413,147.781 251.542,147.266 250.924 C 146.731 250.283,146.500 250.144,146.728 250.600 M214.600 253.998 C 266.032 254.159,279.181 254.304,279.900 254.714 C 280.395 254.997,280.800 255.078,280.800 254.894 C 280.800 253.646,278.239 253.600,214.172 253.698 L 150.200 253.795 214.600 253.998 M282.037 256.400 C 283.196 258.196,283.200 258.201,283.198 257.767 C 283.197 257.565,282.732 256.860,282.165 256.200 L 281.134 255.000 282.037 256.400 M283.400 260.400 C 283.400 261.458,283.532 262.116,283.694 261.862 C 283.856 261.608,283.988 260.950,283.988 260.400 C 283.988 259.850,283.856 259.192,283.694 258.938 C 283.532 258.684,283.400 259.342,283.400 260.400 M140.800 263.400 C 141.545 263.950,142.255 264.399,142.378 264.398 C 142.755 264.395,140.224 262.430,139.822 262.414 C 139.615 262.406,140.055 262.850,140.800 263.400 M282.609 263.570 C 282.312 264.506,280.212 266.218,279.000 266.513 C 278.254 266.694,278.251 266.710,278.962 266.754 C 280.317 266.836,283.764 263.631,283.069 262.936 C 282.961 262.828,282.754 263.113,282.609 263.570 M142.800 264.583 C 142.800 264.824,145.263 266.000,145.761 265.998 C 146.003 265.996,145.750 265.762,145.200 265.476 C 143.872 264.787,142.800 264.388,142.800 264.583 M146.800 266.405 C 147.130 266.616,147.925 266.791,148.567 266.794 C 150.114 266.802,149.777 266.571,147.800 266.268 C 146.710 266.101,146.391 266.145,146.800 266.405 M182.332 267.100 C 200.004 267.158,228.804 267.158,246.332 267.100 C 263.859 267.042,249.400 266.995,214.200 266.995 C 179.000 266.995,164.659 267.042,182.332 267.100 M183.400 275.200 C 183.108 275.673,183.499 275.673,184.600 275.200 C 185.371 274.869,185.369 274.855,184.524 274.828 C 184.042 274.813,183.536 274.980,183.400 275.200 M190.200 275.200 C 191.301 275.673,191.692 275.673,191.400 275.200 C 191.264 274.980,190.758 274.813,190.276 274.828 C 189.431 274.855,189.429 274.869,190.200 275.200 M250.200 275.200 C 249.908 275.673,250.299 275.673,251.400 275.200 C 252.171 274.869,252.169 274.855,251.324 274.828 C 250.842 274.813,250.336 274.980,250.200 275.200 M257.000 275.200 C 258.101 275.673,258.492 275.673,258.200 275.200 C 258.064 274.980,257.558 274.813,257.076 274.828 C 256.231 274.855,256.229 274.869,257.000 275.200 M247.600 276.433 L 246.600 277.248 247.900 276.614 C 248.615 276.265,249.200 275.894,249.200 275.790 C 249.200 275.392,248.563 275.648,247.600 276.433 M259.200 275.742 C 259.200 275.820,260.027 276.405,261.037 277.042 C 263.611 278.664,265.851 281.909,266.531 285.000 C 266.661 285.591,266.719 285.515,266.754 284.712 C 266.802 283.577,265.803 281.506,264.148 279.311 C 262.971 277.751,259.200 275.030,259.200 275.742 M196.400 278.600 C 197.146 279.370,197.847 280.000,197.957 280.000 C 198.067 280.000,197.546 279.370,196.800 278.600 C 196.054 277.830,195.353 277.200,195.243 277.200 C 195.133 277.200,195.654 277.830,196.400 278.600 M244.029 279.491 C 243.353 280.311,242.811 281.166,242.824 281.391 C 242.836 281.616,243.061 281.461,243.324 281.046 C 243.586 280.632,244.221 279.777,244.736 279.146 C 245.250 278.516,245.578 278.000,245.465 278.000 C 245.351 278.000,244.705 278.671,244.029 279.491 M198.627 281.600 C 199.452 283.312,199.603 283.494,199.591 282.767 C 199.586 282.455,199.215 281.750,198.767 281.200 L 197.952 280.200 198.627 281.600 M175.067 283.467 C 174.920 283.613,174.811 284.108,174.825 284.567 C 174.849 285.333,174.882 285.323,175.234 284.442 C 175.626 283.463,175.544 282.989,175.067 283.467 M199.909 286.519 C 200.098 290.611,200.300 291.111,200.347 287.600 C 200.370 285.950,200.250 284.383,200.082 284.119 C 199.914 283.854,199.836 284.934,199.909 286.519 M241.467 284.667 C 241.099 285.034,241.129 290.309,241.500 290.538 C 241.665 290.640,241.800 289.301,241.800 287.562 C 241.800 285.823,241.785 284.400,241.767 284.400 C 241.748 284.400,241.613 284.520,241.467 284.667 M266.909 287.600 C 266.909 288.590,266.987 288.995,267.082 288.500 C 267.178 288.005,267.178 287.195,267.082 286.700 C 266.987 286.205,266.909 286.610,266.909 287.600 M174.828 290.276 C 174.813 290.758,174.980 291.264,175.200 291.400 C 175.673 291.692,175.673 291.301,175.200 290.200 C 174.869 289.429,174.855 289.431,174.828 290.276 M266.454 290.316 C 266.368 291.765,264.863 294.445,263.058 296.361 C 262.146 297.329,261.799 297.856,262.287 297.532 C 264.437 296.103,266.994 291.835,266.671 290.212 C 266.527 289.489,266.503 289.501,266.454 290.316 M199.267 291.980 C 199.033 292.651,198.927 293.200,199.031 293.200 C 199.301 293.200,200.056 291.122,199.857 290.924 C 199.767 290.833,199.501 291.308,199.267 291.980 M197.881 294.639 C 197.486 295.168,197.308 295.600,197.485 295.600 C 197.834 295.600,198.938 294.001,198.728 293.800 C 198.657 293.733,198.277 294.111,197.881 294.639 M244.019 295.400 C 245.294 297.160,248.156 299.248,250.000 299.762 C 250.550 299.915,250.100 299.569,249.000 298.992 C 247.900 298.415,246.199 297.191,245.220 296.272 C 244.241 295.352,243.701 294.960,244.019 295.400 M178.004 296.142 C 179.206 297.521,182.140 299.602,182.872 299.595 C 183.162 299.593,182.590 299.130,181.600 298.568 C 180.610 298.005,179.172 296.972,178.404 296.273 C 177.145 295.125,177.106 295.112,178.004 296.142 M194.456 298.034 C 193.936 298.455,193.666 298.794,193.856 298.787 C 194.344 298.769,195.776 297.643,195.571 297.439 C 195.477 297.345,194.975 297.613,194.456 298.034 M191.800 299.414 C 190.795 299.898,190.763 299.953,191.600 299.751 C 192.150 299.619,192.771 299.350,192.980 299.155 C 193.498 298.671,193.214 298.733,191.800 299.414 M184.119 300.082 C 184.383 300.250,185.950 300.370,187.600 300.347 C 191.111 300.300,190.611 300.098,186.519 299.909 C 184.934 299.836,183.854 299.914,184.119 300.082 M254.200 300.000 L 251.000 300.253 254.000 300.321 C 255.650 300.357,257.270 300.213,257.600 300.000 C 257.930 299.787,258.020 299.643,257.800 299.679 C 257.580 299.716,255.960 299.861,254.200 300.000 " stroke="none" fill="#fceda6" fill-rule="evenodd"></path></g></svg>